<svg data-v-423bf9ae="" xmlns="http://www.w3.org/2000/svg" viewBox="0 0 273.2360002852515 60" class="font"><!----><!----><!----><g data-v-423bf9ae="" id="b51e43cb-272a-44d3-a9d7-2156b9bc01d2" fill="black" transform="matrix(4.866180078772107,0,0,4.866180078772107,-2.3844281586954423,0.8759117933335183)"><path d="M7.01 2.25L6.26 4.16L6.26 4.16Q5.67 3.75 5.07 3.50L5.07 3.50L5.07 3.50Q4.47 3.25 3.98 3.25L3.98 3.25L3.98 3.25Q3.53 3.25 3.32 3.35L3.32 3.35L3.32 3.35Q3.11 3.46 3.11 3.82L3.11 3.82L3.11 3.82Q3.11 4.23 3.47 4.44L3.47 4.44L3.47 4.44Q3.84 4.65 4.42 4.84L4.42 4.84L4.42 4.84Q4.91 5.01 5.42 5.21L5.42 5.21L5.42 5.21Q5.92 5.42 6.33 5.75L6.33 5.75L6.33 5.75Q6.73 6.08 6.99 6.58L6.99 6.58L6.99 6.58Q7.24 7.08 7.24 7.84L7.24 7.84L7.24 7.84Q7.24 8.57 6.96 9.10L6.96 9.10L6.96 9.10Q6.68 9.63 6.22 9.97L6.22 9.97L6.22 9.97Q5.75 10.32 5.16 10.49L5.16 10.49L5.16 10.49Q4.56 10.65 3.92 10.65L3.92 10.65L3.92 10.65Q3.01 10.65 2.10 10.27L2.10 10.27L2.10 10.27Q1.19 9.88 0.49 9.13L0.49 9.13L1.30 7.24L1.30 7.24Q1.95 7.90 2.61 8.26L2.61 8.26L2.61 8.26Q3.28 8.62 3.88 8.62L3.88 8.62L3.88 8.62Q4.38 8.62 4.70 8.50L4.70 8.50L4.70 8.50Q5.03 8.37 5.04 7.97L5.04 7.97L5.04 7.97Q5.04 7.73 4.94 7.57L4.94 7.57L4.94 7.57Q4.83 7.41 4.64 7.30L4.64 7.30L4.64 7.30Q4.45 7.20 4.19 7.11L4.19 7.11L4.19 7.11Q3.92 7.03 3.63 6.93L3.63 6.93L3.63 6.93Q3.14 6.76 2.65 6.55L2.65 6.55L2.65 6.55Q2.17 6.34 1.78 6.00L1.78 6.00L1.78 6.00Q1.39 5.66 1.15 5.16L1.15 5.16L1.15 5.16Q0.91 4.66 0.91 3.93L0.91 3.93L0.91 3.93Q0.91 3.21 1.18 2.69L1.18 2.69L1.18 2.69Q1.44 2.17 1.88 1.84L1.88 1.84L1.88 1.84Q2.31 1.51 2.88 1.36L2.88 1.36L2.88 1.36Q3.44 1.20 4.05 1.20L4.05 1.20L4.05 1.20Q4.82 1.20 5.59 1.48L5.59 1.48L5.59 1.48Q6.36 1.76 7.01 2.25L7.01 2.25ZM13.15 3.04L13.15 3.04L13.15 3.04Q13.71 3.04 14.26 3.15L14.26 3.15L14.26 3.15Q14.81 3.26 15.25 3.61L15.25 3.61L15.25 3.61Q15.69 3.96 15.97 4.61L15.97 4.61L15.97 4.61Q16.25 5.26 16.25 6.33L16.25 6.33L16.25 10.50L13.92 10.50L13.92 7.17L13.92 7.17Q13.92 6.13 13.58 5.59L13.58 5.59L13.58 5.59Q13.24 5.05 12.61 5.05L12.61 5.05L12.61 5.05Q12.17 5.05 11.86 5.25L11.86 5.25L11.86 5.25Q11.55 5.45 11.36 5.80L11.36 5.80L11.36 5.80Q11.17 6.15 11.09 6.62L11.09 6.62L11.09 6.62Q11.00 7.08 11.00 7.64L11.00 7.64L11.00 10.50L8.50 10.50L8.50 1.55L10.79 1.55L10.79 4.56L10.79 4.56Q10.79 4.56 10.92 4.33L10.92 4.33L10.92 4.33Q11.05 4.09 11.33 3.80L11.33 3.80L11.33 3.80Q11.61 3.51 12.05 3.28L12.05 3.28L12.05 3.28Q12.50 3.04 13.15 3.04ZM21.70 3.04L21.70 3.04L21.70 3.04Q22.33 3.04 23.09 3.21L23.09 3.21L23.09 3.21Q23.84 3.39 24.49 3.83L24.49 3.83L24.49 3.83Q25.14 4.27 25.58 5.01L25.58 5.01L25.58 5.01Q26.01 5.75 26.01 6.89L26.01 6.89L26.01 6.89Q26.01 8.02 25.58 8.75L25.58 8.75L25.58 8.75Q25.14 9.48 24.49 9.90L24.49 9.90L24.49 9.90Q23.84 10.32 23.09 10.49L23.09 10.49L23.09 10.49Q22.33 10.65 21.70 10.65L21.70 10.65L21.70 10.65Q21.07 10.65 20.33 10.49L20.33 10.49L20.33 10.49Q19.59 10.32 18.95 9.90L18.95 9.90L18.95 9.90Q18.31 9.48 17.88 8.75L17.88 8.75L17.88 8.75Q17.44 8.02 17.44 6.89L17.44 6.89L17.44 6.89Q17.44 6.13 17.65 5.56L17.65 5.56L17.65 5.56Q17.85 4.98 18.18 4.56L18.18 4.56L18.18 4.56Q18.51 4.13 18.95 3.84L18.95 3.84L18.95 3.84Q19.39 3.54 19.86 3.37L19.86 3.37L19.86 3.37Q20.33 3.19 20.80 3.12L20.80 3.12L20.80 3.12Q21.28 3.04 21.70 3.04ZM21.70 8.90L21.70 8.90L21.70 8.90Q22.47 8.90 22.92 8.46L22.92 8.46L22.92 8.46Q23.37 8.01 23.37 6.89L23.37 6.89L23.37 6.89Q23.37 5.75 22.93 5.27L22.93 5.27L22.93 5.27Q22.48 4.79 21.70 4.79L21.70 4.79L21.70 4.79Q20.92 4.79 20.50 5.27L20.50 5.27L20.50 5.27Q20.09 5.75 20.09 6.89L20.09 6.89L20.09 6.89Q20.09 8.01 20.50 8.46L20.50 8.46L20.50 8.46Q20.92 8.90 21.70 8.90ZM31.98 10.65L31.98 10.65L31.98 10.65Q31.43 10.65 31.00 10.47L31.00 10.47L31.00 10.47Q30.58 10.29 30.27 10.07L30.27 10.07L30.27 10.07Q29.90 9.81 29.65 9.48L29.65 9.48L29.65 12.15L27.13 12.15L27.13 3.22L29.23 3.22L29.60 4.16L29.60 4.16Q29.85 3.85 30.20 3.60L30.20 3.60L30.20 3.60Q30.49 3.39 30.93 3.21L30.93 3.21L30.93 3.21Q31.37 3.04 31.98 3.04L31.98 3.04L31.98 3.04Q32.80 3.04 33.43 3.34L33.43 3.34L33.43 3.34Q34.05 3.64 34.47 4.14L34.47 4.14L34.47 4.14Q34.89 4.65 35.11 5.33L35.11 5.33L35.11 5.33Q35.32 6.01 35.32 6.76L35.32 6.76L35.32 6.76Q35.32 7.52 35.11 8.22L35.11 8.22L35.11 8.22Q34.89 8.92 34.47 9.46L34.47 9.46L34.47 9.46Q34.05 10.01 33.43 10.33L33.43 10.33L33.43 10.33Q32.80 10.65 31.98 10.65ZM31.18 4.94L31.18 4.94L31.18 4.94Q30.93 4.94 30.65 5.02L30.65 5.02L30.65 5.02Q30.38 5.10 30.16 5.30L30.16 5.30L30.16 5.30Q29.93 5.50 29.79 5.87L29.79 5.87L29.79 5.87Q29.65 6.23 29.65 6.80L29.65 6.80L29.65 6.80Q29.65 7.38 29.79 7.75L29.79 7.75L29.79 7.75Q29.93 8.12 30.16 8.34L30.16 8.34L30.16 8.34Q30.38 8.55 30.65 8.64L30.65 8.64L30.65 8.64Q30.93 8.72 31.18 8.72L31.18 8.72L31.18 8.72Q31.43 8.72 31.70 8.64L31.70 8.64L31.70 8.64Q31.96 8.55 32.18 8.34L32.18 8.34L32.18 8.34Q32.40 8.12 32.54 7.75L32.54 7.75L32.54 7.75Q32.68 7.38 32.68 6.80L32.68 6.80L32.68 6.80Q32.68 6.23 32.54 5.87L32.54 5.87L32.54 5.87Q32.40 5.50 32.18 5.30L32.18 5.30L32.18 5.30Q31.96 5.10 31.70 5.02L31.70 5.02L31.70 5.02Q31.43 4.94 31.18 4.94ZM39.31 10.50L36.79 10.50L36.79 3.22L39.31 3.22L39.31 10.50ZM39.30 1.04L39.30 1.04L39.30 1.04Q39.30 1.30 39.20 1.53L39.20 1.53L39.20 1.53Q39.10 1.76 38.93 1.93L38.93 1.93L38.93 1.93Q38.77 2.10 38.54 2.20L38.54 2.20L38.54 2.20Q38.32 2.30 38.07 2.30L38.07 2.30L38.07 2.30Q37.53 2.30 37.17 1.93L37.17 1.93L37.17 1.93Q36.81 1.57 36.81 1.04L36.81 1.04L36.81 1.04Q36.81 0.78 36.90 0.56L36.90 0.56L36.90 0.56Q37.00 0.34 37.17 0.17L37.17 0.17L37.17 0.17Q37.34 0.01 37.57-0.08L37.57-0.08L37.57-0.08Q37.80-0.18 38.07-0.18L38.07-0.18L38.07-0.18Q38.57-0.18 38.93 0.17L38.93 0.17L38.93 0.17Q39.30 0.53 39.30 1.04ZM46.23 3.22L48.76 3.22L46.05 10.50L43.18 10.50L40.50 3.22L43.16 3.22L44.65 8.39L46.23 3.22ZM46.23 3.22L48.76 3.22L46.05 10.50L43.18 10.50L40.50 3.22L43.16 3.22L44.65 8.39L46.23 3.22ZM56.64 5.77L56.64 10.50L54.64 10.50L54.39 9.39L54.39 9.39Q53.94 10.05 53.40 10.35L53.40 10.35L53.40 10.35Q52.85 10.65 52.08 10.65L52.08 10.65L52.08 10.65Q51.53 10.65 51.04 10.52L51.04 10.52L51.04 10.52Q50.54 10.39 50.16 10.13L50.16 10.13L50.16 10.13Q49.78 9.87 49.56 9.48L49.56 9.48L49.56 9.48Q49.34 9.09 49.34 8.57L49.34 8.57L49.34 8.57Q49.32 7.87 49.54 7.39L49.54 7.39L49.54 7.39Q49.76 6.92 50.14 6.61L50.14 6.61L50.14 6.61Q50.53 6.30 51.03 6.13L51.03 6.13L51.03 6.13Q51.53 5.96 52.09 5.90L52.09 5.90L52.09 5.90Q52.64 5.84 53.21 5.84L53.21 5.84L53.21 5.84Q53.77 5.85 54.28 5.88L54.28 5.88L54.28 5.84L54.28 5.84Q54.28 5.29 53.99 5.03L53.99 5.03L53.99 5.03Q53.70 4.77 53.28 4.70L53.28 4.70L53.28 4.70Q52.85 4.63 52.34 4.71L52.34 4.71L52.34 4.71Q51.83 4.79 51.38 4.91L51.38 4.91L51.38 4.91Q50.93 5.04 50.61 5.17L50.61 5.17L50.61 5.17Q50.29 5.29 50.25 5.32L50.25 5.32L50.25 3.58L50.25 3.58Q50.26 3.57 50.52 3.49L50.52 3.49L50.52 3.49Q50.78 3.40 51.17 3.30L51.17 3.30L51.17 3.30Q51.56 3.21 52.04 3.12L52.04 3.12L52.04 3.12Q52.51 3.04 52.98 3.04L52.98 3.04L52.98 3.04Q53.44 3.04 54.07 3.15L54.07 3.15L54.07 3.15Q54.70 3.26 55.27 3.56L55.27 3.56L55.27 3.56Q55.85 3.86 56.25 4.40L56.25 4.40L56.25 4.40Q56.64 4.93 56.64 5.77L56.64 5.77ZM54.26 7.52L54.26 7.25L54.26 7.25Q53.80 7.25 53.35 7.26L53.35 7.26L53.35 7.26Q52.89 7.27 52.52 7.34L52.52 7.34L52.52 7.34Q52.15 7.42 51.93 7.61L51.93 7.61L51.93 7.61Q51.70 7.80 51.70 8.16L51.70 8.16L51.70 8.16Q51.70 8.55 51.94 8.77L51.94 8.77L51.94 8.77Q52.18 8.99 52.47 8.99L52.47 8.99L52.47 8.99Q52.86 8.99 53.19 8.88L53.19 8.88L53.19 8.88Q53.52 8.76 53.76 8.56L53.76 8.56L53.76 8.56Q54.00 8.36 54.13 8.09L54.13 8.09L54.13 8.09Q54.26 7.83 54.26 7.52L54.26 7.52Z"></path></g><!----><!----></svg>